# xmcd
# 
# Track frame offsets:
#     182
#     18070
#     37327
#     60085
#     85470
#     104200
#     132295
#     157545
# 
# Disc length: 2479
# 
# Revision: 3
# Processed by: cddbd v1.5.2PL0 Copyright (c) Steve Scherf et al.
# Submitted via: fre:ac v1.0.27
# 
DISCID=5c09ad08
DTITLE=Champion Jack Dupree - Blues
DYEAR=1969
DGENRE=Jazz
TTITLE0=My Baby's Coming Home
TTITLE1=You Rascal You
TTITLE2=No Tomorrow
TTITLE3=The Heart Of The Blues Is Sound
TTITLE4=The Japanese Special
TTITLE5=Hard Feeling
TTITLE6=Blues From 1921
TTITLE7=Don't Mistreat Your Woman
EXTD=YEAR: 1969
EXTT0=
EXTT1=
EXTT2=
EXTT3=
EXTT4=
EXTT5=
EXTT6=
EXTT7=
PLAYORDER=
